<svg id="SvgjsSvg1014" width="100%" height="100%" xmlns="http://www.w3.org/2000/svg" version="1.1" xlink="http://www.w3.org/1999/xlink" xmlns:svgjs="http://svgjs.com/svgjs" viewBox="12.795015335083008 12.719970703125 74.29098510742188 74.78355407714844"><defs id="SvgjsDefs1015"></defs><g id="SvgjsG1016" fill="#1a1a1a"><path d="M85.501 50c.085.12.286.051.229-.274l-.343-.226.114.5zm.502-2.211c-.18-.378-.483-.795-.774-.525.336.353.208.452.607.84.055.326-.077.575-.202.525.091.113-.047.507.17.677.235-.429.217-.978-.022-1.528.066-.125.158-.013.221.011zM71.219 20.178l.145.158a.694.694 0 0 0-.145-.158zm-18.78-6.868c.155 0 .222-.03.232-.059-.146.015-.265.029-.232.059zm-3.474-.436l.207.012c-.08-.026-.159-.039-.207-.012zm22.254 7.304l-.374-.409c-.091.066.177.231.374.409zm13.478 23.356a.927.927 0 0 0 .128.264l-.074-.257a1.344 1.344 0 0 1-.054-.007zm-6.71-17.54l.112.122a.947.947 0 0 0 .195.015l-.307-.137zm4.015 5.589c-.071-.14-.341-.044-.478-.033a.506.506 0 0 1 .342.192c.047-.024.092-.073.136-.159zm3.502 10.252l.086.177-.086-.177zM74.569 22.442a.21.21 0 0 0 .02-.117c-.023.026-.027.068-.02.117zm9.451 35.042c.018.009.033.005.049.01-.018-.043-.035-.058-.049-.01zM86.239 50l.01.109c.053.012.104.024.156.024L86.239 50zM42.528 13.212l.029.001c.163-.058.068-.038-.029-.001zM13.524 57.896c.081-.696.583.978.608-.049-.083.117-.654-.79-.608.049zm71.184-14.538l-.043-.267c.009.124.022.206.043.267zM14.132 57.847l.002-.001v-.105l-.002.106zm14.836-38.729a.395.395 0 0 0 .19.011c-.02-.021-.067-.03-.19-.011zm10.042-4.425l-.266.057a1.34 1.34 0 0 0 .266-.057zm-14.229 8.324c-.124.083-.187.089-.31.252a.255.255 0 0 0 .069-.016c.027-.078.086-.156.241-.236zm-3.978 4.361c.036-.012.073-.035.11-.053l.1-.159-.21.212zm55.875 45.22a.949.949 0 0 1 .368-.029c-.211-.065.288-.717-.368.029zm8.174-29.096c-.075-.02-.116-.061-.144-.144l.043.183c.044.009.083.005.101-.039zM26.128 24.789l-.684.564c.202-.147.45-.352.684-.564zm14.196 58.848l.207.018a.36.36 0 0 0-.207-.018zM23.706 27.319a1.584 1.584 0 0 0-.484.243c-.008.041-.022.084-.014.123l.498-.366zM77.05 72.57l-.004-.001.004.001z"></path><path d="M79.838 67.397c-.442.711.105.523.194.785-.439.924-.475.258-.812.449-.121.294-.173.591-.228.865-.069.265-.151.499-.298.686-.071-.007-.144.054-.142-.076-.167.705-1.165 1.599-1.363 2.447a.26.26 0 0 1-.139.017c.227.025.386.13.471.235-.256.29-.308.686-.589.636.165-.171.105-.25.122-.381l-.193.368c-.506.041.281-.488.085-.654-.439.65-.848 1.527-1.327 1.909-.329-.143.864-1.121.104-.734l.72-.599c-.876.167.405-.389-.46-.291-.896.808-.747 1.15-1.694 1.907-.07.318.262.139.19.459-1.06 1.421-1.576.278-2.209 1.466-.106.38.051.785-.816 1.154l.012-.488c-.96.67-.208.844-1.35 1.377.09-.256.668-.659.499-.589-.814.231-.325.515-.82.886l-.295-.21c-.519.345-1.039.748-1.578 1.164-.542.409-1.08.872-1.71 1.175.023-.123.188-.32-.152-.272-.748.452-1.595.853-2.45 1.198-.89.264-1.785.481-2.601.673l-.511.5c-.142.048-.306-.054-.166-.145-.665.055.022.186-.251.375-.358.113-.525-.04-.321-.183-.524.262-1.291.598-2.089.869-.79.305-1.65.341-2.274.304l.222-.122c-.953.025-.983.759-1.898.622l.163-.078c-1.039.044-2.131.093-3.162.155-.258.01-.512.026-.76.023-.248-.021-.49-.046-.725-.078a7.034 7.034 0 0 1-1.292-.282c-.333.417-2.021-.289-2.213.224-1.136-.469-.787-.523-2.385-.964-.432-.078-.716.227-1.266.156l.056-.304-.797.128-.291-.456-.517-.051c.193.068.385.242.332.32-.409-.033-.872-.207-1.225-.391-.347-.205-.577-.44-.563-.514l-1.867-.406c.085-.101.398-.032.661-.02-1.061-.053-.054-.365-1.026-.413.09.107-.132.147-.176.197-.373-.312-1.293-.813-2.034-1.066l.227-.126a43.681 43.681 0 0 1-3.982-2.125c.428.375.121.62-.3.406l.021-.368c-.369.012.348.355-.318.239-.465-.377-.113-.539.216-.425l-.638-.335c.023-.105.186-.046.292-.122-.354-.013-.788-.999-1.336-.97l.027-.101-.84-.606c-.244-.185-.449-.369-.658-.535-.413-.336-.803-.647-1.282-1.071-.212.187-.541-.195-.987-.293-.578-.77-1.119-1.695-1.902-2.519-.621-.524-.333-.028-.687-.206.163-.21-.537-1.107-.039-.746-.425-.534-.696-.876-1.012-1.242l-.533-.596-.665-.86c.009.217.082.425-.049.377-.201-.249-.284-.674-.155-.7l.066.057c-.666-.737-1.133-1.781-1.404-2.841-.157-.52-.311-1.022-.499-1.467a4.796 4.796 0 0 0-.311-.621 2.603 2.603 0 0 0-.331-.534l.054.071-.812-1.409c-.213-.709.334.352.296-.213a6.24 6.24 0 0 1-.572-1.049 9.45 9.45 0 0 1-.242-.985c-.128-.635-.229-1.23-.546-1.89.188-.607.102-1.569-.121-2.566-.097-.5-.219-1.012-.276-1.495-.02-.487-.003-.943.099-1.318l-.173.096c-.193-.372.078-.469.105-.75-.136.045-.139.422-.247.189-.265-1.62-.035-3.309.147-4.981.122-.834.362-1.654.537-2.473l.276-1.222.38-1.186c.345-1.15-.718-.903.074-2.28l.208.518c.149-1.23.647-2.395 1.065-3.568.542-1.126 1.084-2.237 1.488-3.389-.006.16.07.206-.03.419.442-.335.974-1.597.806-1.714.214-.309.196.018.401-.126.389-.35.389-1.27.76-1.347.061-.014-.024.156-.059.245.097-.334.946-1.216.531-1.126.656-.635.918-1.481 1.52-1.921.083-.55 1.152-1.045.929-1.451.297.359 1.302-.944 1.62-1.446-.047.227.466-.231.43.057.475-.44.86-.903.622-1.002 1.2-.432 1.611-1.868 2.566-1.736l1.044-.992 1.108-.837 1.098-.802.547-.389.577-.325c.082.227-.37.406-.754.675-.391.255-.766.502-.614.687.328-.254.614-.497.882-.731.279-.214.548-.403.817-.594a8.99 8.99 0 0 1 1.87-1.036c.409-.13-.141.285-.238.418.692-.48 1.477-.683 2.201-.965.739-.242 1.421-.58 2.112-.851.008.041-.134.125-.269.195.278-.086.673-.104.585-.293l-.26.124c-.541-.168.959-.888.978-1.055-.339.694 1.469-.226.872.695.176-.085.387-.24.315-.363.286-.032.389.024.144.248.983-.375.592-.454 1.528-.617.014.098-.169.165-.245.294.437-.262.889-.527 1.697-.565-.04.067.062.13-.175.164 1.344-.291 2.298-.728 3.833-.643-.436.454.521.116.604.485 0 0 .202-.044.404-.071l.405-.035-.324-.198c.71.043 1.354-.197 1.964-.043l-.539.127 1.341-.003-.749-.179c.74-.155-.048-.475.908-.323-.2.033.728.02 1.072.327l-.003.001c.365-.064.748-.133 1.264.04.119.139-.171.392-.094.484.391-.244 1.674.141 2.171-.067-.16.039-.207.229-.168.28l.338-.174c.306.163.344.213.257.352.956.294-.201-.54.905-.045-.096-.003-.062.044-.259.033 1.127.396 2.29.393 3.271.934.178.465-.927-.242-.682.186.745.237 1.546.41 2.342.602.793.196 1.531.531 2.208.887l-.239-.161c.423-.376.92.715 1.713.856-.18-.067-.356.137-.282.106.844.622 1.897.969 3.325 1.7l-.235-.005c.425.47 1.259 1.03 1.754 1.477.241.01.534.257.471-.037.304.447.636.827.987 1.173.358.336.751.618 1.145.894.386.283.802.53 1.121.869.319.338.596.713.783 1.159-.148-.16-.436-.302-.32-.174l1.135 1.062c.093-.241-.03-.241-.116-.603.236.056.616.316.878.605-.6-.419-.264.232-.193.56.025-.085.147-.052.188-.118.167.91.445-.18.899.889l-.132.026c.299.297.661.512.904.896-.106.304-.369-.285-.564-.179.382.496 1.186.698 1.242 1.353-.201-.19-.399-.523-.632-.688.119.671.18.712.39 1.125l-.017-.042.429.981-.067-.275c.501.153.739.485.968.857.113.187.229.383.368.579.123.205.276.408.494.598-.834-.736-.296-.038-.599.029.043.282.135.692.009.626.435.341.184.826.813 1.308-.075.068.223.483-.051.48.35.549.09-.204.225-.206.745.781.451 2.333 1.397 3.519.522 1.135.873 1.281 1.332 2.377-.054.418-.426-.229-.426-.229.005.649.191 1.09.39 1.658-.102-.103-.153.034-.234.233.096.464.397.251.351.899-.123-.089-.316-.197-.458-.403.172.534.436 1.053.611 1.618-.145.173-.309-.313-.449-.498.17.629.422 1.64.665 1.823l.073-.43c.025.238-.216.144-.287-.024-.294-.528-.029-.807.063-.852l.125.403c.503-.495-.345-1.647-.436-2.469l.462.272-.469-.789c.069-.2.28-.374.411.026.088-.639-.268-.491-.165-1.048.02-.064.046-.043.076.005l-.269-.548c.114.092.26-.166.293.204-.037-1.102-.732-1.59-.53-2.067l.047.08c-.57-1.377-.322-.055-1.025-.984l.455-.949-.337-.033c-.042-.147-.125-.439.009-.43-.391-.461-.091.138-.389-.101-.002-.392-.189-.864-.369-1.259-.195-.389-.334-.724-.149-.901-.325-.141.142.707-.345.068.377-.423-.474-.777-.549-1.486.33.062.481.706.402-.013-.292-.081-.412-.387-.501-.735-.094-.345-.202-.711-.384-.937-.329.158-.775-.984-1.373-1.735.178-.044-.868-1.58-1.306-2.374l.064-.016c-.41.096-.858-.717-1.379-1.151.183-.121.338-.094.648.123.011-.009-.421-.473-.421-.473-.19-.034-.369-.14-.675-.414l.313-.064c-.594-.606-1.35-1.06-2-1.935-.22.146.125 1.076-.823.446.065-.127.198-.327.457-.168-.085-.052-.335-.149-.439-.323l.496.136c-.291-.403-.324-.032-.597-.309.141-.139-.118-.297.03-.375.087.054.197.29.362.334-.303-.323-.62-.77-.653-1.002-.046.11-.177.198-.434 0-.63-.553-.057-.373-.356-.781-.229-.045-.572-.475-.77-.252-.196-.148-.146-.283-.173-.403-.43-.159-1.654-1.191-1.446-.642l.077.083-.064-.032.003.002-.003-.002a5.251 5.251 0 0 1-.921-.564c-.297-.209-.605-.406-.899-.628-.593-.434-1.18-.888-1.813-1.198l.05-.085c-.777-.332-1.711-.774-2.332-.856-.222-.107-.451-.418-.307-.479-.618-.198-.7-.179-1.518-.635.674.064-.153-.219.672.113-.753-.368-.882-.583-1.822-.64.377-.132-.49-.518-.892-.585l.496.374c-.434-.119-.795-.276-1.164-.432l.304-.244c-.769-.45-1.592-.454-2.326-.509-.744-.031-1.398-.152-1.993-.554-.494.159.897.303.439.508-.766-.163-1.507-.759-1.758-.798-1.063-.333-1.069.295-2.181.066.135.125.236.447-.608.517-.775-.083-.935-.546-.428-.615.191 0 .28.042.269.082.258-.03.6-.063.295-.208l-.112.113c-.384-.141-1.481-.184-1.216-.365-.609.083-.264.182.177.266-1.014-.202-1.592-.141-2.643-.17.169.057.324.189.159.196-1.54-.07-.669.259-1.698.363-.6-.151.182-.442-.853-.237-.651-.089-.166-.307.085-.416-.236.07-.467.099-.689.11a3.95 3.95 0 0 1-.635.028c-.403-.011-.763-.063-1.04-.042l.493-.172c-.296.102-.543.138-.796.176l.324.191c-.301.004-.552.041-.562-.057-.278.2.294.354-.269.656-.41-.051-1.162.289-1.352.04 1.243-.122-.203-.299.834-.519-.195.069-.443.102-.747.113-.051-.024.028-.076.106-.104-1.23.006-.463.48-1.662.776.11-.211-.362-.255-.55-.167.488-.122.305.227-.1.472-.804.064-.803.313-1.206.401l.475-.055c-.105.205-.492.278-.982.533-.087-.115.437-.261.235-.252-.469.503-1.397.167-2.128.658-.415.024-.157-.297-.515-.253-.821.528-1.057.183-1.902.782.365.089.382.016-.156.533l1.421-.87-.814.776c.45-.203.875-.61 1.176-.664-.394.36-.357.309-.071.381-.753-.035-1.118.769-1.92.887l-.24-.54c-.591.149-1.05.423-1.503.786-.447.376-.918.784-1.614 1.12l.476-.169c-.054.307-.792.519-1.165.858-.068-.188-.375-.089-.624-.076.104.105-.916.667-.796 1.069l-.708.198c-1.061.67-.807 1.261-1.707 2.016.124-.402-.369-.144.124-.798-.297.267-.587.481-.501.588-.256.066-.637.938-1.035 1.046-.064.176.039.361-.3.647-.064.004-.067-.071-.067-.071.055.06-.394.585.026.459-.625.23-1.193.871-1.734 1.499-.27.315-.538.625-.801.89-.24.284-.486.516-.75.648-.462.739-1.051 1.597-1.483 2.25-.023-.076-.08-.057.014-.172-.718.827.13.877-.677 1.81-.599.371.191-.646-.115-.375-.631-.179-.729 1.298-1.423 1.86l.054-.2c-.475.475-.458 1.515-.948 2.426 0 0-.03-.069-.087-.046-.053.758-.356 2.069-.621 3.021-.134-.373.028-.468-.28-.378-.119.431.435.019.2.871-.225.226-.578.783-.843.793-.024-.007.259-.801.259-.801-.508.29-.336 1.04-.495 1.454l-.136-.098c-.276 1.274.101 1.385-.269 2.714l.151-.114c.211.807-.326.579-.168 1.372l-.424.159c.029.515.087 1.782.081 2.668-.269-.529-.222-1.581-.307-2.255-.078.493-.227 1.681-.07 1.955-.009-.201-.067-.462.023-.65.183.636.334 1.441.269 2.415-.756-.211-.353 2.546-.824 3.279.192.876.186 1.746.201 2.66.077.906.131 1.861.31 2.876.475-.827.108.59.689.348.11.459.177.628.139.68l.003 1.478c-.087.378-.244-.407-.366-.332.217 1.032-.141.492-.122 1.216.175-.197.393.271.464.878l.059-.899c.659 1.326-.113 1.367.677 2.672l-.343-.378c.185.341.427 1.005.712 1.647.256.655.711 1.222 1.074 1.461-.006.15-.08.382-.266.098.38.828.881 1.715 1.466 2.483.586.77 1.115 1.499 1.355 2.183l-.197-.036c.22.262.522.36.661.776-.064.018-.205-.025-.118.106.151.116.752.569.949.978l-.365-.207c.452.769.945 1.255 1.438 1.68.531.395 1.076.719 1.605 1.229-.317.279.478 1.452.958 1.964l-.062.028c.749.719 1.465 1.247 2.178 1.732.716.482 1.511.824 2.31 1.335.165.273.443.57.787.883.349.307.802.574 1.259.876.93.578 1.916 1.241 2.74 1.735-.227-.198.2-.284.522-.178.364.275 1.236.256 1.004.592l-.14-.076c.141.495 1.004.844 1.689 1.069l.306-.45c.74.659 1.912 1.082 3.012 1.3 1.109.203 2.102.365 2.525.828.463.004 1.018.084 1.485.019l-.074.275c1.233.238 1.848.447 3.405.504l-.337.185c.884.064 1.171-.757 1.963-.733l.223.434c1.512.139 3.083.329 4.563-.106-.019.063-.054.187-.301.217.722.043 2.807-.047 2.466-.572.07.364 1.569-.185 2.331-.505l-.067.304c.599-.52.596-.62 1.5-.954.229-.021.249.166-.062.173.773-.048.504-.402 1.431-.488l-.282.256c.761-.183.683-.231 1.02-.582.423-.273 1.403-.438 1.601-.242.047-.181.373-.519.829-.608.093.067-.042.179-.11.235a3.278 3.278 0 0 0 1.429-.65c.363-.253.679-.472 1.142-.543.057.075.13.091.21.084-.94.446-1.701.794-1.638.741.099.237.885-.09.418.528.545-.476 1.403-1.356 2.195-1.605.047.005.094.009.139.031l-.063.063c.183-.061.327-.153.448-.266.245-.099.403-.158.621-.286.189.134.89-.406 1.256-.616-.177-.222.315-.468-.246-.398.067-.018-.05.069-.282.224-.05.04-.111.082-.138.118l.012-.036-.88.556c.213-.296.445-.577.919-.683.09-.266.192-.545.258-.687.695.049 1.751-.363 1.997-.284.471-.45 1.062-.924 1.575-1.398.255-.238.494-.471.681-.708.173-.254.302-.5.364-.734.222-.293.406-.165.562-.194-.12.18-.31.342-.344.476.449-.59 1.559-1.488 1.428-1.868.781-.502-.122.606.724-.318l-.034.205c1.046-.71 1.561-1.628 2.089-2.529.48-.951.934-1.915 2.065-2.787-.151.125-.226.189-.299.184 2.023-2.411 3.067-5.592 4.534-8.296.402-.787.212-.955.223-1.507l.353-.086s-.015-.244-.044-.49l-.054-.488c.037-.655.353-1.141.656-1.69.151-.273.299-.561.404-.886.085-.329.104-.701.05-1.125l-.232.172c.127-.573.16-1.845.378-1.718-.028-.064-.181-.216-.041-.429l.16.001s-.006-.364-.033-.727l-.098-.728c.17-1.104.617.225.73-1.416-.03-.619-.374-1.742-.491-1.512-.02.243-.129.62-.289.635l-.055-.547c-.461-.105-.917-.5-1.309.789l.238.916-.24.279.024-.761c-.234.422-.06.701.053 1.017-.123.065-.214.185-.267.36l.397.928c-.196.087-.314-.43-.49.147.142.434.467-.353.497.348-.276.407-.428.256-.326.784-.13.054-.189-.063-.211-.268.074.466-.12 1.188.089 1.462-.163.202-.203.582-.257.898-.07.312-.173.554-.379.486.068.158.139.847.052 1.257-.322-.867-.418 1.502-.91 1.148.344.686-.471 1.959-.546 2.991-.016-.066-.05-.197.003-.27-.229.511-.417.61-.621.91.331.216.033 1.039.045 1.57-.641.459-.234-.573-.658-.53.304.101-.229 1.205.109 1.113-.437.369-.298.358-.703.451.389.309-.119.486-.097.995-.606.531-.5-.061-.803.724-.334.256-.103-.459-.103-.459zM66.253 81.446l-.003-.005.365-.193-.362.198zm-1.515.734c.189-.079.42-.188.663-.307.096.062.082.179-.074.249.054-.099-.329.024-.589.058zm4.14.034c-.22.18-.329.181-.39.151a7.97 7.97 0 0 0 .402-.284l.011-.047a.35.35 0 0 1-.023.18z"></path><path d="M69.119 81.636c.031-.026.044-.048.087-.077a1.814 1.814 0 0 0-.175.032l-.039.127.127-.082zm2.272-61.273l-.026-.027a.216.216 0 0 1 .038.078c-.012-.026-.006-.033-.012-.051zm-29.24 63.601l-.014.07.154-.025zm35.456-56.459c-.008.03-.007.074.017.143.012-.016 0-.074-.017-.143zm2.296 3.304l.21.539a5.004 5.004 0 0 0-.21-.539zm1.442 2.729a.302.302 0 0 0 .133-.002l-.001-.006-.132.008zM39.772 16.437a.787.787 0 0 0-.11.041c-.248.129-.077.052.11-.041zm14.356-1.924c-.16.027-.317.054-.481.061.256.061.455.097.481-.061zM26.203 24.727l-.002-.005-.073.067zm26.764-10.193c.256.069.474.067.68.039-.212-.03-.461-.07-.68-.039zm32.118 31.709l.011.147a.053.053 0 0 1 .046.013l-.057-.16zm.057.16l.041.161c-.004-.075-.009-.14-.041-.161zm.129.501l-.088-.34c.005.12.004.269.088.34zm-.738-4.691l-.111-.023c.027.02.063.028.111.023zm-.337-1.193c.051.293-.027.768.138 1.15l.089.019c-.197-.15.009-.938-.227-1.169zm-.475-5.389c.021-.008.304 1.034.304 1.034.037-.215.087-.503.28-.052-.173-1.397-.119.349-.584-.982zm-1.308-3.076c.297.499.136-.08.203-.082-.26-.28-.33-.341-.203.082zm-17.41-16.146l.157-.209c-.42-.161-.044.089-.157.209zm-4.704-.365s.357.26.353.271l.258-.155-.302-.071a3.602 3.602 0 0 0-.309-.045zm-2.152-2.434l.2.013-.752-.096zM21.241 26.379l.33.096c.162-.259-.072-.541-.33-.096zm-7.312 15.886c-.218.148-.39.623-.282.954.079-.389.259-.754.282-.954zm23.134 42.801l-.374-.024.666.15z"></path></g></svg>